<svg width="716" height="8564" viewBox="0 0 716 8564" fill="none" xmlns="http://www.w3.org/2000/svg">
<g id="Brun Individual Vectors">
<path id="Brun-125,Brun-117" d="M244.146 906.877C151.556 911.478 106.691 899.516 36.812 857.252" stroke="black" stroke-width="5"/>
<path id="trav-brun104,trav-brun105" d="M323.675 1327.86C217.932 1535.89 209.681 1604.86 315.347 1615.42" stroke="black" stroke-width="5"/>
<path id="trav-brun101,Brun-104" d="M239.11 148.894L328.633 1.29651" stroke="black" stroke-width="5"/>
<path id="Brun-104,Brun-127-1" d="M239.109 148.894C227.812 271.779 166.608 286.67 7.87047 264.431" stroke="black" stroke-width="5"/>
<path id="Brun-104,Brun-107" d="M239.109 148.894C204.776 245.446 316.815 399.105 538.884 415.411" stroke="black" stroke-width="5"/>
<path id="Brun-104,Brun-127-2" d="M239.11 148.894C202.257 237.408 182.496 301.893 147.963 428.505" stroke="black" stroke-width="5"/>
<path id="Brun-104,trav-brun102" d="M239.109 148.894L242.311 631.383" stroke="black" stroke-width="5"/>
<path id="Brun-109,trav-brun102" d="M242.312 631.383C256.801 437.07 294.928 420.777 382.118 450.951" stroke="black" stroke-width="5"/>
<path id="Brun-111,trav-brun102" d="M242.312 631.383C296.32 596.99 329.47 597.502 388.597 598.412" stroke="black" stroke-width="5"/>
<path id="Brun-113,trav-brun102" d="M362.069 745.091C293.847 772.441 261.176 769.121 242.311 631.383" stroke="black" stroke-width="5"/>
<path id="trav-brun102,Brun-117" d="M244.14 906.877L242.312 631.383" stroke="black" stroke-width="5"/>
<path id="Brun-115,Brun-117" d="M244.14 906.877C308.47 654.945 398.001 960.857 538.465 653.419" stroke="black" stroke-width="5"/>
<path id="trav-brun103,Brun-117" d="M244.14 906.877C238.136 755.414 624.1 793.895 660.468 804.112" stroke="black" stroke-width="5"/>
<path id="Brun-116-1,Brun-116-2" d="M624.29 1078.86C624.29 1078.86 491.643 981.737 500.744 921.675" stroke="black" stroke-width="5"/>
<path id="Brun-116-2,Brun-119-2" d="M624.291 1078.86C280.085 1097.14 365.245 1223.58 488.023 1189.77" stroke="black" stroke-width="5"/>
<path id="Brun-116-1,trav-brun117" d="M244.141 906.877C314.69 687.904 509.847 861.613 500.746 921.675" stroke="black" stroke-width="5"/>
<path id="Brun-117,trav-brun124" d="M244.141 906.877C265.546 1269.24 176.802 1155.04 81.1306 1056.46" stroke="black" stroke-width="5"/>
<path id="Brun-119-1,trav-brun104" d="M323.673 1327.86L156.575 1198.46" stroke="black" stroke-width="5"/>
<path id="Brun-119-2,trav-brun104" d="M323.673 1327.86L488.025 1189.77" stroke="black" stroke-width="5"/>
<path id="Brun-117,trav-brun104" d="M244.142 906.877L323.673 1327.86" stroke="black" stroke-width="5"/>
<path id="Brun-119-3,trav-brun104" d="M323.672 1327.86L615.642 1357.92" stroke="black" stroke-width="5"/>
<path id="Brun-119-4,trav-brun104" d="M323.673 1327.86L464.977 1483.92" stroke="black" stroke-width="5"/>
<path id="Brun-119-5,trav-brun104" d="M323.674 1327.86L151.874 1469.5" stroke="black" stroke-width="5"/>
<path id="Brun-119-6,trav-brun104" d="M323.674 1327.86L31.1642 1362.8" stroke="black" stroke-width="5"/>
<path id="Brun-126,trav-brun102" d="M242.327 631.383C225.785 510.087 178.431 423.323 86.6254 601.416" stroke="black" stroke-width="5"/>
<path id="brun-228-3,trav-brun205" d="M312.268 3764.99C328.355 3946.42 444.732 4015.56 465.044 3825.48" stroke="black" stroke-width="5"/>
<path id="brun-228-2,trav-brun207" d="M562.867 3723.32L715.381 3724.81" stroke="black" stroke-width="5"/>
<path id="brun-228-3,trav-brun207" d="M465.043 3825.48L562.867 3723.32" stroke="black" stroke-width="5"/>
<path id="brun-232,trav-brun205" d="M312.266 3764.99C243.558 3783.79 215.521 3799.37 242.984 3864.32" stroke="black" stroke-width="5"/>
<path id="brun-235,trav-brun205" d="M312.266 3764.99C128.609 3773.46 24.2953 3778.7 102.484 3691.32" stroke="black" stroke-width="5"/>
<path id="brun-226,trav-brun205" d="M312.266 3764.99C356.224 3627.19 235.362 3572.99 235.362 3572.99" stroke="black" stroke-width="5"/>
<path id="brun-228,trav-brun207" d="M475.022 3596.4L562.866 3723.32" stroke="black" stroke-width="5"/>
<path id="trav-brun205,trav-brun206" d="M491.945 4036.8C384.751 4105.57 291.535 3902.15 312.267 3764.99" stroke="black" stroke-width="5"/>
<path id="brun-226,brun-228-1" d="M333.942 3283.33C323.155 3616.91 467.627 3461.45 475.023 3596.4" stroke="black" stroke-width="5"/>
<path id="brun-228,brun-241" d="M149.751 3255.06C31.7682 3260.42 227.196 3548.05 235.362 3572.99" stroke="black" stroke-width="5"/>
<path id="brun-222,brun-226" d="M333.942 3283.33C637.972 3286.76 625.936 3281.4 637.398 3200.32" stroke="black" stroke-width="5"/>
<path id="brun-224,brun-226" d="M333.942 3283.33C599.599 3306.07 637.716 3248.32 638.904 3427.31" stroke="black" stroke-width="5"/>
<path id="trav-brun203,brun-226" d="M333.941 3283.33L331.159 3070.35" stroke="black" stroke-width="5"/>
<path id="trav-brun-203,brun-238" d="M331.159 3070.35L149.75 3255.06" stroke="black" stroke-width="5"/>
<path id="brun-204,trav-brun202" d="M322.765 2427.89L325.143 2609.88" stroke="black" stroke-width="5"/>
<path id="trav-brun203,trav-brun204" d="M331.159 3070.35L0.178535 3094.04" stroke="black" stroke-width="5"/>
<path id="brun-243,trav-brun203" d="M207.278 2957.67L331.159 3070.35" stroke="black" stroke-width="5"/>
<path id="brun-245,brun-243" d="M131.546 2772.17C129.507 2870.67 148.168 2909.58 207.279 2957.67" stroke="black" stroke-width="5"/>
<path id="brun-217,trrav-brun203" d="M331.159 3070.35L436.484 3028.82" stroke="black" stroke-width="5"/>
<path id="trav-brun202,trav-brun203" d="M325.143 2609.88L331.159 3070.35" stroke="black" stroke-width="5"/>
<path id="brun-210-2,trav-brun202" d="M325.143 2609.88C460.151 2625.55 598.029 2542.07 557.912 2901.34" stroke="black" stroke-width="5"/>
<path id="brun-210-1,trav-brun202" d="M325.143 2609.88L707.903 2673.34" stroke="black" stroke-width="5"/>
<path id="brun-209-2,trav-brun202" d="M325.143 2609.88C365.409 2595.44 547.982 2610.4 571.97 2533.24" stroke="black" stroke-width="5"/>
<path id="Brun-209-1,brun-209-2" d="M695.352 2288.91L571.971 2533.24" stroke="black" stroke-width="5"/>
<path id="brun-247,trav-brun202" d="M229.075 2625.51C261.978 2577.61 290.582 2551.11 325.143 2609.88" stroke="black" stroke-width="5"/>
<path id="brun-252,brun-204" d="M322.766 2427.89C191.877 2424.95 124.053 2420.25 162.08 2324.95" stroke="black" stroke-width="5"/>
<path id="brun-250,brun-204" d="M322.765 2427.89C113.702 2427.58 -19.1292 2423.73 110.261 2503.3" stroke="black" stroke-width="5"/>
<path id="trav-brun201,brun-204" d="M491.302 2131.26C350.497 2188.39 289.863 2234.75 322.766 2427.89" stroke="black" stroke-width="5"/>
<path id="brun-226,trav-brun205_2" d="M333.945 3283.33C331.981 3316.67 313.26 3734.97 312.27 3764.99" stroke="black" stroke-width="5"/>
<path id="trav-brun303,trav-brun304" d="M513.834 6354.21C392.278 6368.7 351.412 6214.2 350.051 6025.79" stroke="black" stroke-width="5"/>
<path id="brun-322-2,trav-brun303" d="M350.051 6025.79C381.817 6126.08 487.257 6078.74 512.825 6202.21" stroke="black" stroke-width="5"/>
<path id="brun-322-1,brun-322-2" d="M681.802 6122.59L512.826 6202.21" stroke="black" stroke-width="5"/>
<path id="brun-321-2,trav-brun303" d="M350.051 6025.79C417.018 6041.71 454.508 6022.8 521.359 5981.15" stroke="black" stroke-width="5"/>
<path id="brun-321-1,brun-321-2" d="M659.405 5912.23L521.359 5981.15" stroke="black" stroke-width="5"/>
<path id="brun-325-1,trav-brun303" d="M217.695 6032.67L350.052 6025.79" stroke="black" stroke-width="5"/>
<path id="brun-325-2,brun-325-1" d="M148.217 6187.13L217.694 6032.67" stroke="black" stroke-width="5"/>
<path id="brun-315,trav-brun303" d="M398.66 5499.45C396.146 5535.24 351.023 5994.23 350.051 6025.79" stroke="black" stroke-width="5"/>
<path id="brun-316-2,brun-315" d="M398.66 5499.45C364.682 6105.69 260.294 5874.38 158.971 5848.55" stroke="black" stroke-width="5"/>
<path id="brun-315,brun-326-1" d="M398.66 5499.45C353.334 6170.54 216.412 5853.76 223.984 5699.62" stroke="black" stroke-width="5"/>
<path id="brun-319-2,brun-315" d="M398.66 5499.45C571.996 5483.32 633.996 5554.82 629.148 5722.93" stroke="black" stroke-width="5"/>
<path id="brun-319-1,brun-315" d="M398.659 5499.45L702.734 5584.94" stroke="black" stroke-width="5"/>
<path id="brun-318,brun-315" d="M398.66 5499.45L660.564 5408.71" stroke="black" stroke-width="5"/>
<path id="brun-327-2,brun-315" d="M398.66 5499.45C312.608 5190.52 296.13 5284.89 233.212 5357.05" stroke="black" stroke-width="5"/>
<path id="brun-327-1,brun-327-2" d="M132.789 5519.72L233.212 5357.05" stroke="black" stroke-width="5"/>
<path id="trav-brun302,brun-315" d="M398.66 5499.45L347.978 4984.78" stroke="black" stroke-width="5"/>
<path id="brun-333,trav-brun302" d="M347.978 4984.78C317.017 5251.99 223.638 5158.51 270.641 5044.79" stroke="black" stroke-width="5"/>
<path id="brun-309-2,trav-brun302" d="M619.741 5209.48C606.207 5076.21 596.943 4938.63 347.978 4984.78" stroke="black" stroke-width="5"/>
<path id="brun-309-1,trav-brun302" d="M347.978 4984.78C484.582 5015.5 528.571 4958.08 697.774 5063.46" stroke="black" stroke-width="5"/>
<path id="brun-308,trav-brun302" d="M671.629 4815.63C638.852 4883.44 549.693 4976.44 347.978 4984.78" stroke="black" stroke-width="5"/>
<path id="brun-336,trav-brun302" d="M118.354 4926.8C-33.8337 4748.31 501.126 4891.26 347.978 4984.78" stroke="black" stroke-width="5"/>
<path id="brun-339,trav-brun302" d="M266.229 4756.82C194.852 4926.29 359.293 4766.1 347.978 4984.78" stroke="black" stroke-width="5"/>
<path id="brun-303,trav-brun302" d="M468.095 4735.98C332.2 4741.82 327.074 4818.03 347.978 4984.78" stroke="black" stroke-width="5"/>
<path id="trav-brun301,brun-303" d="M499.182 4598.27C342.988 4611.3 218.838 4848.63 468.096 4735.98" stroke="black" stroke-width="5"/>
<path id="trav-brun405,trav-brun406" d="M525.456 8556.18C454.163 8589.83 358.152 8434.29 378.494 8333.15" stroke="black" stroke-width="5"/>
<path id="brun-413,trav-brun405" d="M378.494 8333.15C390.303 8545.19 442.656 8549.33 598.423 8400.19" stroke="black" stroke-width="5"/>
<path id="brun-417,trav-brun405" d="M378.494 8333.15C385.798 8436 375.37 8474.08 314.983 8485.57" stroke="black" stroke-width="5"/>
<path id="brun-419,trav-brun405" d="M313.975 8333.58C335.794 8306.23 348.734 8296.6 378.495 8333.15" stroke="black" stroke-width="5"/>
<path id="brun-412,trav-brun405" d="M378.494 8333.15C437.19 8364.14 447.45 8323.49 463.897 8246.08" stroke="black" stroke-width="5"/>
<path id="brun-421,trav-brun405" d="M378.494 8333.15C401.937 8241.96 395.783 8167.41 312.873 8167.58" stroke="black" stroke-width="5"/>
<path id="trav-brun404,brun-421" d="M376.109 7973.66C391.801 8072.77 401.284 8127.78 312.873 8167.58" stroke="black" stroke-width="5"/>
<path id="brun-411,trav-brun404" d="M376.109 7973.66C436.733 8041.75 504.123 8071.87 616.115 8127.57" stroke="black" stroke-width="5"/>
<path id="trav-brun404,brun-423" d="M311.822 8009.08L376.109 7973.66" stroke="black" stroke-width="5"/>
<path id="brun-425,trav-brun404" d="M261.74 7770.91C387.851 7862.58 375.169 7897.43 376.109 7973.66" stroke="black" stroke-width="5"/>
<path id="brun-410-2,brun-425" d="M261.739 7770.91C474.235 7769.5 454.322 7782.63 451.93 7949.65" stroke="black" stroke-width="5"/>
<path id="brun-409,brun-425" d="M261.74 7770.91L597.609 7674.68" stroke="black" stroke-width="5"/>
<path id="trav-brun403,brun-425" d="M261.74 7770.91C410.12 7752.43 383.29 7505.75 391.067 7409.05" stroke="black" stroke-width="5"/>
<path id="brun-427,trav-brun403" d="M391.067 7409.05C372.096 7598.18 346.788 7551.84 301.289 7552.14" stroke="black" stroke-width="5"/>
<path id="brun-408,trav-brun403" d="M391.067 7409.05L582.941 7498.77" stroke="black" stroke-width="5"/>
<path id="brun-429,trav-brun403" d="M309.625 7376.59L391.067 7409.05" stroke="black" stroke-width="5"/>
<path id="brun-407,trav-brun403" d="M391.067 7409.05C470.384 7332.66 509.595 7327.11 581.637 7302.28" stroke="black" stroke-width="5"/>
<path id="trav-brun402,trav-brun403" d="M375.584 7144.14C381.58 7198.45 385.503 7351.97 391.068 7409.05" stroke="black" stroke-width="5"/>
<path id="brun-431,trav-brun402" d="M375.584 7144.14C376.314 7254.14 343.721 7240.36 308.609 7223.59" stroke="black" stroke-width="5"/>
<path id="brun-433,trav-brun402" d="M307.425 7045.09C395.265 7096.01 365.392 7115.21 375.584 7144.14" stroke="black" stroke-width="5"/>
<path id="trav-brun401,trav-brun402" d="M513.973 6976.22C406.916 6951.53 382.019 7056.71 375.584 7144.14" stroke="black" stroke-width="5"/>
<path id="brun-410-1,brun-425" d="M261.741 7770.91L611.98 7805.59" stroke="black" stroke-width="5"/>
</g>
</svg>
