<svg width="966" height="640" viewBox="0 0 966 640" fill="none" xmlns="http://www.w3.org/2000/svg">
<g id="export route">
<path id="AIEB-RMC353__AIEB-RM354-1" d="M89.1135 84.24C131.215 70.24 163.013 75.6 193.522 70.24" stroke="#060606" stroke-width="10"/>
<path id="AIEB-RMC353__AIEB-RM354-3" d="M89.1135 84.24C83 85.5 79.5 113 85.4105 127.36" stroke="#060606" stroke-width="10"/>
<path id="AIEB-RM354-3__AIEB-RM354-1" d="M85.4104 127.36C150.937 130.4 185.15 116.8 193.522 70.24" stroke="#060606" stroke-width="10"/>
<path id="AIEB-RM354-3__BRUN-429" d="M85.4104 127.36C146.322 151.413 209.273 167.707 274.263 176.24" stroke="#060606" stroke-width="10"/>
<path id="AIEB-RM354-3__AIEB-RM244-1" d="M85.4106 127.36C72.0001 138 66.0001 150 67.8616 169.12" stroke="#060606" stroke-width="10"/>
<path id="AIEB-RM354-3__AIEB-RM244-1" d="M85.4106 127.36C85.4106 148.8 81.0001 157 67.8616 169.12" stroke="#060606" stroke-width="10"/>
<path id="AIEB-RM244-1__CLEM-Outdoor_TennisPole" d="M67.8616 169.12C125.178 178.8 184.748 200.8 216.465 275.12" stroke="#060606" stroke-width="10"/>
<path id="AIEB-RM244-1__PRSC-RM204" d="M67.8616 169.12C56.35 229.5 56.3502 277.5 56.3501 326.48" stroke="#060606" stroke-width="10"/>
<path id="PRSC-RM204__CLEM-Outdoor_TennisPole" d="M56.3501 326.48C105.455 320 165.428 297.6 216.465 275.12" stroke="#060606" stroke-width="10"/>
<path id="PRSC-RM204__AIEB-RMC138" d="M56.3501 326.48C66.5001 367 89.5001 396.5 119.301 409.68" stroke="#060606" stroke-width="10"/>
<path id="AIEB-RMC138__AIEB-RM147-1" d="M119.301 409.68C131.618 363.12 140.473 363.12 171.063 363.12" stroke="#060606" stroke-width="10"/>
<path id="AIEB-RMC138__AIEB-RM253" d="M119.301 409.68C165.428 392 192.395 403.6 215.66 415.12" stroke="#060606" stroke-width="10"/>
<path id="AIEB-RMC138__BRWN-RM315" d="M119.301 409.68C194.408 464 247.538 460.8 311.374 445.12" stroke="#060606" stroke-width="10"/>
<path id="AIEB-RM354-1__AIEB-RM255-1" d="M193.522 70.24C268.065 46.4 317.572 40.4 373.761 79.12" stroke="#060606" stroke-width="10"/>
<path id="AIEB-RM354-1__BRUN-429" d="M193.522 70.24C226.607 108.8 268.87 153.2 274.263 176.24" stroke="#060606" stroke-width="10"/>
<path id="BRUN-429__AIEB-RM255-1" d="M274.263 176.24C307.912 140.4 338.1 112 373.761 79.12" stroke="#060606" stroke-width="10"/>
<path id="BRUN-429__CLEM-Outdoor_TennisPole" d="M274.264 176.24C250.597 206.64 231.33 239.6 216.465 275.12" stroke="#060606" stroke-width="10"/>
<path id="BRUN-429__CLEM-RM216" d="M274.263 176.24C284.567 219.547 300.372 260.773 321.678 299.92" stroke="#060606" stroke-width="10"/>
<path id="BRUN-429__PRSC-RM214" d="M274.263 176.24C357.42 171.68 402.097 176.24 464.565 171.68" stroke="#060606" stroke-width="10"/>
<path id="BRUN-429__AIEB-RM277-2" d="M274.263 176.24C342.527 207.2 379.557 223.2 440.737 245.12" stroke="#060606" stroke-width="10"/>
<path id="AIEB-RM147-1__CLEM-Outdoor_TennisPole" d="M171.062 363.12C197.5 363.12 216.464 310 216.464 275.12" stroke="#060606" stroke-width="10"/>
<path id="AIEB-RM253__CLEM-RM216" d="M215.659 415.12C249.147 334.4 274.505 313.2 321.678 299.92" stroke="#060606" stroke-width="10"/>
<path id="AIEB-RM253__AIEB-RM261" d="M215.659 415.12C251.187 406.053 284.514 391.84 315.64 372.48" stroke="#060606" stroke-width="10"/>
<path id="AIEB-RM253__BRWN-RM315" d="M215.659 415.12C245.981 430 277.886 440 311.374 445.12" stroke="#060606" stroke-width="10"/>
<path id="AIEB-RM255-1__PRSC-RM214" d="M373.761 79.12C400.058 113.787 430.326 144.64 464.565 171.68" stroke="#060606" stroke-width="10"/>
<path id="PRSC-RM214__AIEB-RM143-1" d="M464.565 171.68C538.947 158 592.882 156 655.511 135.68" stroke="#060606" stroke-width="10"/>
<path id="PRSC-RM214__CLEM-RM220" d="M464.565 171.68C495.155 192.96 528.241 209.227 563.822 220.48" stroke="#060606" stroke-width="10"/>
<path id="PRSC-RM214__AIEB-RM277-2" d="M464.565 171.68C446 192 436.5 202.5 440.737 245.12" stroke="#060606" stroke-width="10"/>
<path id="AIEB-RM277-2__CLEM-RM220" d="M440.738 245.12C495.478 216 501.113 220.48 563.822 220.48" stroke="#060606" stroke-width="10"/>
<path id="AIEB-RM277-2__AIEB-RM209-1" d="M440.738 245.12C433 263 443.5 276.5 457.401 285.68" stroke="#060606" stroke-width="10"/>
<path id="AIEB-RM209-1__PRSC-Outdoor_East" d="M457.401 285.68C480.209 290.693 503.125 291.173 526.148 287.12" stroke="#060606" stroke-width="10"/>
<path id="AIEB-RM209-1__AIEB-RM105-2" d="M457.401 285.68C445 303.5 436 332 441.301 355.12" stroke="#060606" stroke-width="10"/>
<path id="AIEB-RM105-2__AIEB-RMC201" d="M441.301 355.12C465.29 359.867 489.44 360.907 513.751 358.24" stroke="#060606" stroke-width="10"/>
<path id="AIEB-RM105-2__AIEB-RM203-2" d="M441.301 355.12C438 386.5 444 406.5 457.16 425.68" stroke="#060606" stroke-width="10"/>
<path id="AIEB-RM203-2__AIEB-RMC201" d="M457.159 425.68C479.538 406.107 498.402 383.627 513.751 358.24" stroke="#060606" stroke-width="10"/>
<path id="AIEB-RM203-2__AIEB-RM130-4" d="M457.16 425.68C460.5 445 474 453.5 490.728 457.36" stroke="#060606" stroke-width="10"/>
<path id="AIEB-RM130-4__CLEM-RM406" d="M490.728 457.36C516.112 457.627 541.041 454.48 565.513 447.92" stroke="#060606" stroke-width="10"/>
<path id="BRWN-RM315__AIEB-RM130-4" d="M311.374 445.12C371.91 492.4 456.033 484 490.728 457.36" stroke="#060606" stroke-width="10"/>
<path id="BRWN-RM315__AIEB-RM203-2" d="M311.374 445.12C361.069 446.88 409.665 440.4 457.16 425.68" stroke="#060606" stroke-width="10"/>
<path id="BRWN-RM315__AIEB-RM105-2" d="M311.374 445.12C359.352 421.76 402.661 391.76 441.301 355.12" stroke="#060606" stroke-width="10"/>
<path id="BRWN-RM315__AIEB-RM261" d="M311.374 445.12C316.15 421.12 317.573 396.907 315.641 372.48" stroke="#060606" stroke-width="10"/>
<path id="AIEB-RM261__AIEB-RM105-2" d="M315.641 372.48C358.467 373.12 400.353 367.333 441.301 355.12" stroke="#060606" stroke-width="10"/>
<path id="AIEB-RM105-2__CLEM-RM216" d="M441.301 355.12C381.167 351.2 347.76 348 321.678 299.92" stroke="#060606" stroke-width="10"/>
<path id="AIEB-RM261__CLEM-RM216" d="M315.641 372.48C320.9 348.587 322.912 324.4 321.678 299.92" stroke="#060606" stroke-width="10"/>
<path id="CLEM-RM216__AIEB-RM209-1" d="M321.678 299.92C382.5 291.5 412.5 296 457.401 285.68" stroke="#060606" stroke-width="10"/>
<path id="CLEM-RM216__AIEB-RM277-2" d="M321.678 299.92C357.42 267.2 383.18 253.2 440.737 245.12" stroke="#060606" stroke-width="10"/>
<path id="CLEM-RM406__AIEB-RMC353" d="M565.512 447.92C683.042 416 657.282 424.8 744.947 477.92" stroke="#060606" stroke-width="10"/>
<path id="CLEM-RM406__AIEB-RM354-1" d="M565.512 447.92C577.587 438.8 606.165 386 643.436 345.92" stroke="#060606" stroke-width="10"/>
<path id="CLEM-RM406__AIEB-RM354-1" d="M565.512 447.92C572.757 398.4 609.787 365.6 643.436 345.92" stroke="#060606" stroke-width="10"/>
<path id="CLEM-RM406__AIEB-RMC201" d="M565.512 447.92C552.364 415.707 535.11 385.813 513.751 358.24" stroke="#060606" stroke-width="10"/>
<path id="AIEB-RMC201__AIEB-RM354-3" d="M513.751 358.24C545.468 349.28 575.092 335.76 602.623 317.68" stroke="#060606" stroke-width="10"/>
<path id="AIEB-RMC201__PRSC-Outdoor_East" d="M513.751 358.24C521.425 335.147 525.558 311.44 526.148 287.12" stroke="#060606" stroke-width="10"/>
<path id="PRSC-Outdoor_East__AIEB-RM354-3" d="M526.148 287.12C550.03 301.2 575.521 311.387 602.623 317.68" stroke="#060606" stroke-width="10"/>
<path id="PRSC-Outdoor_East__BRUN-429" d="M526.148 287.12C577.775 268.187 625.404 242.08 669.035 208.8" stroke="#060606" stroke-width="10"/>
<path id="PRSC-Outdoor_East__CLEM-RM220" d="M526.148 287.12C543.16 267.387 555.718 245.173 563.822 220.48" stroke="#060606" stroke-width="10"/>
<path id="CLEM-RM220__BRUN-429" d="M563.822 220.48C609.385 208.8 637.158 208.8 669.035 208.8" stroke="#060606" stroke-width="10"/>
<path id="CLEM-RM220__AIEB-RM143-1" d="M563.822 220.48C563.822 174 637.963 172.8 655.511 135.68" stroke="#060606" stroke-width="10"/>
<path id="AIEB-RM143-1__AIEB-RM244-1" d="M655.512 135.68C648.83 98.8 693.105 77.2 721.602 66.8" stroke="#060606" stroke-width="10"/>
<path id="AIEB-RM143-1__BRUN-429" d="M655.511 135.68C669.035 160 660.985 185.067 669.035 208.8" stroke="#060606" stroke-width="10"/>
<path id="BRUN-429__CLEM-Outdoor_TennisPole" d="M669.035 208.8C694.044 201.28 716.665 189.28 736.897 172.8" stroke="#060606" stroke-width="10"/>
<path id="BRUN-429__PRSC-RM204" d="M669.035 208.8C698.337 225.6 716.557 236.987 743.176 245.36" stroke="#060606" stroke-width="10"/>
<path id="BRUN-429__AIEB-RMC138" d="M669.035 208.8C684.652 246.4 682.479 270.56 696.325 299.36" stroke="#060606" stroke-width="10"/>
<path id="AIEB-RM354-3__AIEB-RMC138" d="M602.623 317.68C650.44 280 672.175 288.8 696.325 299.36" stroke="#060606" stroke-width="10"/>
<path id="AIEB-RM354-3__AIEB-RM354-1" d="M602.623 317.68C614.752 329.2 628.356 338.613 643.437 345.92" stroke="#060606" stroke-width="10"/>
<path id="AIEB-RM354-3__BRUN-429" d="M602.623 317.68C598.517 281.6 658.892 261.2 669.035 208.8" stroke="#060606" stroke-width="10"/>
<path id="AIEB-RM354-1__AIEB-RMC353" d="M643.437 345.92C650.843 370 710.01 435.6 744.947 477.92" stroke="#060606" stroke-width="10"/>
<path id="AIEB-RM354-1__AIEB-RM147-1" d="M643.437 345.92C668.231 351.947 693.347 353.867 718.785 351.68" stroke="#060606" stroke-width="10"/>
<path id="AIEB-RM354-1__AIEB-RMC138" d="M643.437 345.92C672 334 685.5 323 696.325 299.36" stroke="#060606" stroke-width="10"/>
<path id="AIEB-RM147-1__AIEB-RMC353" d="M718.784 351.68C720.985 395.093 729.706 437.173 744.947 477.92" stroke="#060606" stroke-width="10"/>
<path id="AIEB-RMC138__AIEB-RM147-1" d="M696.325 299.36C740.197 327.6 730.537 326.4 718.784 351.68" stroke="#060606" stroke-width="10"/>
<path id="AIEB-RMC138__PRSC-RM204" d="M696.325 299.36C723.5 292.5 737.5 268 743.176 245.36" stroke="#060606" stroke-width="10"/>
<path id="PRSC-RM204__CLEM-Outdoor_TennisPole" d="M743.176 245.36C755 220.5 749 194 736.897 172.8" stroke="#060606" stroke-width="10"/>
<path id="CLEM-Outdoor_TennisPole__AIEB-RM253" d="M736.897 172.8C762.737 159.2 779.159 135 779.159 112.8" stroke="#060606" stroke-width="10"/>
<path id="CLEM-Outdoor_TennisPole__AIEB-RM244-1" d="M736.897 172.8C730.94 141.2 716.45 114.8 721.602 66.8" stroke="#060606" stroke-width="10"/>
<path id="AIEB-RM253__AIEB-RM244-1" d="M779.16 112.8C779.16 91 744.5 57 721.602 66.8" stroke="#060606" stroke-width="10"/>
</g>
</svg>
